<svg width="20" height="20" viewBox="0 0 20 20" fill="none" xmlns="http://www.w3.org/2000/svg">
<path d="M3.125 2.5C2.95924 2.5 2.80027 2.56585 2.68306 2.68306C2.56585 2.80027 2.5 2.95924 2.5 3.125C2.5 3.29076 2.56585 3.44973 2.68306 3.56694C2.80027 3.68415 2.95924 3.75 3.125 3.75H3.4325C3.56821 3.75023 3.70016 3.79464 3.80841 3.8765C3.91666 3.95836 3.99531 4.07323 4.0325 4.20375L6.015 11.1413C6.12713 11.5328 6.36368 11.8771 6.68888 12.1223C7.01408 12.3674 7.41025 12.5 7.8175 12.5H13.5287C13.9036 12.5001 14.2698 12.3878 14.5802 12.1777C14.8905 11.9676 15.1308 11.6693 15.27 11.3212L17.1125 6.71375C17.1882 6.52416 17.2164 6.3189 17.1945 6.11591C17.1726 5.91293 17.1013 5.7184 16.9869 5.54932C16.8724 5.38025 16.7183 5.24178 16.538 5.14602C16.3577 5.05026 16.1567 5.00013 15.9525 5H5.56L5.23375 3.86C5.12191 3.46847 4.88564 3.12398 4.56068 2.87862C4.23571 2.63326 3.83969 2.50036 3.4325 2.5H3.125ZM7.2175 10.7963L5.9175 6.25H15.9525L14.1087 10.8575C14.0623 10.9734 13.9823 11.0727 13.8789 11.1426C13.7755 11.2126 13.6536 11.25 13.5287 11.25H7.8175C7.68179 11.2498 7.54984 11.2054 7.44159 11.1235C7.33334 11.0416 7.25469 10.9268 7.2175 10.7963ZM8.125 17.5C8.37123 17.5 8.61505 17.4515 8.84253 17.3573C9.07002 17.263 9.27672 17.1249 9.45083 16.9508C9.62494 16.7767 9.76305 16.57 9.85727 16.3425C9.9515 16.115 10 15.8712 10 15.625C10 15.3788 9.9515 15.135 9.85727 14.9075C9.76305 14.68 9.62494 14.4733 9.45083 14.2992C9.27672 14.1251 9.07002 13.987 8.84253 13.8927C8.61505 13.7985 8.37123 13.75 8.125 13.75C7.62772 13.75 7.15081 13.9475 6.79917 14.2992C6.44754 14.6508 6.25 15.1277 6.25 15.625C6.25 16.1223 6.44754 16.5992 6.79917 16.9508C7.15081 17.3025 7.62772 17.5 8.125 17.5ZM8.125 16.25C7.95924 16.25 7.80027 16.1842 7.68306 16.0669C7.56585 15.9497 7.5 15.7908 7.5 15.625C7.5 15.4592 7.56585 15.3003 7.68306 15.1831C7.80027 15.0658 7.95924 15 8.125 15C8.29076 15 8.44973 15.0658 8.56694 15.1831C8.68415 15.3003 8.75 15.4592 8.75 15.625C8.75 15.7908 8.68415 15.9497 8.56694 16.0669C8.44973 16.1842 8.29076 16.25 8.125 16.25ZM13.125 17.5C13.3712 17.5 13.615 17.4515 13.8425 17.3573C14.07 17.263 14.2767 17.1249 14.4508 16.9508C14.6249 16.7767 14.763 16.57 14.8573 16.3425C14.9515 16.115 15 15.8712 15 15.625C15 15.3788 14.9515 15.135 14.8573 14.9075C14.763 14.68 14.6249 14.4733 14.4508 14.2992C14.2767 14.1251 14.07 13.987 13.8425 13.8927C13.615 13.7985 13.3712 13.75 13.125 13.75C12.6277 13.75 12.1508 13.9475 11.7992 14.2992C11.4475 14.6508 11.25 15.1277 11.25 15.625C11.25 16.1223 11.4475 16.5992 11.7992 16.9508C12.1508 17.3025 12.6277 17.5 13.125 17.5ZM13.125 16.25C12.9592 16.25 12.8003 16.1842 12.6831 16.0669C12.5658 15.9497 12.5 15.7908 12.5 15.625C12.5 15.4592 12.5658 15.3003 12.6831 15.1831C12.8003 15.0658 12.9592 15 13.125 15C13.2908 15 13.4497 15.0658 13.5669 15.1831C13.6842 15.3003 13.75 15.4592 13.75 15.625C13.75 15.7908 13.6842 15.9497 13.5669 16.0669C13.4497 16.1842 13.2908 16.25 13.125 16.25Z" fill="white"/>
<path d="M3.96875 2.375C3.81128 2.375 3.66026 2.43756 3.54891 2.54891C3.43756 2.66026 3.375 2.81128 3.375 2.96875C3.375 3.12622 3.43756 3.27724 3.54891 3.38859C3.66026 3.49994 3.81128 3.5625 3.96875 3.5625H4.26087C4.3898 3.56272 4.51516 3.60491 4.61799 3.68267C4.72082 3.76044 4.79555 3.86957 4.83087 3.99356L6.71425 10.5842C6.82077 10.9561 7.04549 11.2833 7.35443 11.5161C7.66337 11.749 8.03974 11.875 8.42662 11.875H13.8523C14.2084 11.8751 14.5563 11.7684 14.8512 11.5688C15.146 11.3692 15.3743 11.0858 15.5065 10.7552L17.2569 6.37806C17.3288 6.19795 17.3556 6.00295 17.3348 5.81012C17.314 5.61728 17.2462 5.43248 17.1375 5.27186C17.0288 5.11124 16.8824 4.97969 16.7111 4.88872C16.5398 4.79775 16.3488 4.75012 16.1549 4.75H6.282L5.97206 3.667C5.86581 3.29504 5.64136 2.96778 5.33264 2.73469C5.02392 2.5016 4.64771 2.37534 4.26087 2.375H3.96875ZM7.85662 10.2564L6.62162 5.9375H16.1549L14.4033 10.3146C14.3592 10.4247 14.2831 10.519 14.1849 10.5855C14.0867 10.6519 13.9709 10.6875 13.8523 10.6875H8.42662C8.2977 10.6873 8.17234 10.6451 8.06951 10.5673C7.96668 10.4896 7.89195 10.3804 7.85662 10.2564ZM8.71875 16.625C8.95267 16.625 9.18429 16.5789 9.4004 16.4894C9.61652 16.3999 9.81288 16.2687 9.97828 16.1033C10.1437 15.9379 10.2749 15.7415 10.3644 15.5254C10.4539 15.3093 10.5 15.0777 10.5 14.8438C10.5 14.6098 10.4539 14.3782 10.3644 14.1621C10.2749 13.946 10.1437 13.7496 9.97828 13.5842C9.81288 13.4188 9.61652 13.2876 9.4004 13.1981C9.18429 13.1086 8.95267 13.0625 8.71875 13.0625C8.24633 13.0625 7.79326 13.2502 7.45922 13.5842C7.12517 13.9183 6.9375 14.3713 6.9375 14.8438C6.9375 15.3162 7.12517 15.7692 7.45922 16.1033C7.79326 16.4373 8.24633 16.625 8.71875 16.625ZM8.71875 15.4375C8.56128 15.4375 8.41025 15.3749 8.2989 15.2636C8.18756 15.1522 8.125 15.0012 8.125 14.8438C8.125 14.6863 8.18756 14.5353 8.2989 14.4239C8.41025 14.3126 8.56128 14.25 8.71875 14.25C8.87622 14.25 9.02724 14.3126 9.13859 14.4239C9.24994 14.5353 9.3125 14.6863 9.3125 14.8438C9.3125 15.0012 9.24994 15.1522 9.13859 15.2636C9.02724 15.3749 8.87622 15.4375 8.71875 15.4375ZM13.4687 16.625C13.7027 16.625 13.9343 16.5789 14.1504 16.4894C14.3665 16.3999 14.5629 16.2687 14.7283 16.1033C14.8937 15.9379 15.0249 15.7415 15.1144 15.5254C15.2039 15.3093 15.25 15.0777 15.25 14.8438C15.25 14.6098 15.2039 14.3782 15.1144 14.1621C15.0249 13.946 14.8937 13.7496 14.7283 13.5842C14.5629 13.4188 14.3665 13.2876 14.1504 13.1981C13.9343 13.1086 13.7027 13.0625 13.4687 13.0625C12.9963 13.0625 12.5433 13.2502 12.2092 13.5842C11.8752 13.9183 11.6875 14.3713 11.6875 14.8438C11.6875 15.3162 11.8752 15.7692 12.2092 16.1033C12.5433 16.4373 12.9963 16.625 13.4687 16.625ZM13.4687 15.4375C13.3113 15.4375 13.1603 15.3749 13.0489 15.2636C12.9376 15.1522 12.875 15.0012 12.875 14.8438C12.875 14.6863 12.9376 14.5353 13.0489 14.4239C13.1603 14.3126 13.3113 14.25 13.4687 14.25C13.6262 14.25 13.7772 14.3126 13.8886 14.4239C13.9999 14.5353 14.0625 14.6863 14.0625 14.8438C14.0625 15.0012 13.9999 15.1522 13.8886 15.2636C13.7772 15.3749 13.6262 15.4375 13.4687 15.4375Z" fill="#495E47"/>
</svg>
