<svg width="13" height="11" viewBox="0 0 13 11" fill="none" xmlns="http://www.w3.org/2000/svg">
<path d="M5.91499 0.553463C5.9746 0.451174 6.05999 0.366303 6.16263 0.307315C6.26528 0.248327 6.3816 0.217285 6.49999 0.217285C6.61838 0.217285 6.7347 0.248327 6.83735 0.307315C6.94 0.366303 7.02538 0.451174 7.08499 0.553463L8.59895 3.15238L11.5391 3.78938C11.6548 3.81451 11.7618 3.86952 11.8496 3.94892C11.9373 4.02832 12.0028 4.12933 12.0393 4.2419C12.0759 4.35447 12.0823 4.47465 12.0579 4.59046C12.0335 4.70627 11.9792 4.81368 11.9004 4.90196L9.89624 7.145L10.1996 10.1377C10.2115 10.2556 10.1924 10.3745 10.144 10.4826C10.0956 10.5907 10.0198 10.6843 9.92394 10.7539C9.82811 10.8235 9.71569 10.8668 9.59792 10.8794C9.48014 10.892 9.36112 10.8734 9.25274 10.8256L6.49999 9.6123L3.74724 10.8256C3.63886 10.8734 3.51985 10.892 3.40207 10.8794C3.28429 10.8668 3.17187 10.8235 3.07605 10.7539C2.98022 10.6843 2.90433 10.5907 2.85597 10.4826C2.8076 10.3745 2.78844 10.2556 2.80041 10.1377L3.10374 7.145L1.09958 4.9025C1.02062 4.81423 0.966193 4.70678 0.941741 4.59089C0.917289 4.47501 0.923664 4.35473 0.960228 4.24208C0.996792 4.12943 1.06227 4.02834 1.15012 3.9489C1.23796 3.86946 1.34511 3.81446 1.46087 3.78938L4.40103 3.15238L5.91499 0.553463Z" fill="#FFC700"/>
</svg>
