<svg width="72" height="21" viewBox="0 0 72 21" fill="none" xmlns="http://www.w3.org/2000/svg">
<g filter="url(#filter0_d_19_32)">
<g clip-path="url(#clip0_19_32)">
<path d="M9.91499 1.55346C9.9746 1.45117 10.06 1.3663 10.1626 1.30732C10.2653 1.24833 10.3816 1.21729 10.5 1.21729C10.6184 1.21729 10.7347 1.24833 10.8373 1.30732C10.94 1.3663 11.0254 1.45117 11.085 1.55346L12.599 4.15238L15.5391 4.78938C15.6548 4.81451 15.7618 4.86952 15.8496 4.94892C15.9373 5.02832 16.0028 5.12933 16.0393 5.2419C16.0759 5.35447 16.0823 5.47465 16.0579 5.59046C16.0335 5.70627 15.9792 5.81368 15.9004 5.90196L13.8962 8.145L14.1996 11.1377C14.2115 11.2556 14.1924 11.3745 14.144 11.4826C14.0956 11.5907 14.0198 11.6843 13.9239 11.7539C13.8281 11.8235 13.7157 11.8668 13.5979 11.8794C13.4801 11.892 13.3611 11.8734 13.2527 11.8256L10.5 10.6123L7.74724 11.8256C7.63886 11.8734 7.51985 11.892 7.40207 11.8794C7.28429 11.8668 7.17187 11.8235 7.07605 11.7539C6.98022 11.6843 6.90433 11.5907 6.85597 11.4826C6.8076 11.3745 6.78844 11.2556 6.80041 11.1377L7.10374 8.145L5.09958 5.9025C5.02062 5.81423 4.96619 5.70678 4.94174 5.59089C4.91729 5.47501 4.92366 5.35473 4.96023 5.24208C4.99679 5.12943 5.06227 5.02834 5.15012 4.9489C5.23796 4.86946 5.34511 4.81446 5.46087 4.78938L8.40103 4.15238L9.91499 1.55346Z" fill="#FFC700"/>
</g>
<g clip-path="url(#clip1_19_32)">
<path d="M60.3856 1.55346C60.4452 1.45117 60.5306 1.3663 60.6332 1.30732C60.7359 1.24833 60.8522 1.21729 60.9706 1.21729C61.089 1.21729 61.2053 1.24833 61.3079 1.30732C61.4106 1.3663 61.496 1.45117 61.5556 1.55346L63.0695 4.15238L66.0097 4.78938C66.1254 4.81451 66.2324 4.86952 66.3202 4.94892C66.4079 5.02832 66.4733 5.12933 66.5099 5.2419C66.5465 5.35447 66.5529 5.47465 66.5285 5.59046C66.5041 5.70627 66.4498 5.81368 66.371 5.90196L64.3668 8.145L64.6702 11.1377C64.6821 11.2556 64.663 11.3745 64.6146 11.4826C64.5662 11.5907 64.4903 11.6843 64.3945 11.7539C64.2987 11.8235 64.1863 11.8668 64.0685 11.8794C63.9507 11.892 63.8317 11.8734 63.7233 11.8256L60.9706 10.6123L58.2178 11.8256C58.1094 11.8734 57.9904 11.892 57.8726 11.8794C57.7549 11.8668 57.6425 11.8235 57.5466 11.7539C57.4508 11.6843 57.3749 11.5907 57.3265 11.4826C57.2782 11.3745 57.259 11.2556 57.271 11.1377L57.5743 8.145L55.5702 5.9025C55.4912 5.81423 55.4368 5.70678 55.4123 5.59089C55.3879 5.47501 55.3942 5.35473 55.4308 5.24208C55.4674 5.12943 55.5328 5.02834 55.6207 4.9489C55.7085 4.86946 55.8157 4.81446 55.9314 4.78938L58.8716 4.15238L60.3856 1.55346Z" fill="#FFC700"/>
</g>
<g clip-path="url(#clip2_19_32)">
<path d="M22.915 1.55346C22.9746 1.45117 23.06 1.3663 23.1626 1.30732C23.2653 1.24833 23.3816 1.21729 23.5 1.21729C23.6184 1.21729 23.7347 1.24833 23.8373 1.30732C23.94 1.3663 24.0254 1.45117 24.085 1.55346L25.599 4.15238L28.5391 4.78938C28.6548 4.81451 28.7618 4.86952 28.8496 4.94892C28.9373 5.02832 29.0028 5.12933 29.0393 5.2419C29.0759 5.35447 29.0823 5.47465 29.0579 5.59046C29.0335 5.70627 28.9792 5.81368 28.9004 5.90196L26.8962 8.145L27.1996 11.1377C27.2115 11.2556 27.1924 11.3745 27.144 11.4826C27.0956 11.5907 27.0198 11.6843 26.9239 11.7539C26.8281 11.8235 26.7157 11.8668 26.5979 11.8794C26.4801 11.892 26.3611 11.8734 26.2527 11.8256L23.5 10.6123L20.7472 11.8256C20.6389 11.8734 20.5198 11.892 20.4021 11.8794C20.2843 11.8668 20.1719 11.8235 20.076 11.7539C19.9802 11.6843 19.9043 11.5907 19.856 11.4826C19.8076 11.3745 19.7884 11.2556 19.8004 11.1377L20.1037 8.145L18.0996 5.9025C18.0206 5.81423 17.9662 5.70678 17.9417 5.59089C17.9173 5.47501 17.9237 5.35473 17.9602 5.24208C17.9968 5.12943 18.0623 5.02834 18.1501 4.9489C18.238 4.86946 18.3451 4.81446 18.4609 4.78938L21.401 4.15238L22.915 1.55346Z" fill="#FFC700"/>
</g>
<g clip-path="url(#clip3_19_32)">
<path d="M35.915 1.55346C35.9746 1.45117 36.06 1.3663 36.1626 1.30732C36.2653 1.24833 36.3816 1.21729 36.5 1.21729C36.6184 1.21729 36.7347 1.24833 36.8373 1.30732C36.94 1.3663 37.0254 1.45117 37.085 1.55346L38.599 4.15238L41.5391 4.78938C41.6548 4.81451 41.7618 4.86952 41.8496 4.94892C41.9373 5.02832 42.0028 5.12933 42.0393 5.2419C42.0759 5.35447 42.0823 5.47465 42.0579 5.59046C42.0335 5.70627 41.9792 5.81368 41.9004 5.90196L39.8962 8.145L40.1996 11.1377C40.2115 11.2556 40.1924 11.3745 40.144 11.4826C40.0956 11.5907 40.0198 11.6843 39.9239 11.7539C39.8281 11.8235 39.7157 11.8668 39.5979 11.8794C39.4801 11.892 39.3611 11.8734 39.2527 11.8256L36.5 10.6123L33.7472 11.8256C33.6389 11.8734 33.5198 11.892 33.4021 11.8794C33.2843 11.8668 33.1719 11.8235 33.076 11.7539C32.9802 11.6843 32.9043 11.5907 32.856 11.4826C32.8076 11.3745 32.7884 11.2556 32.8004 11.1377L33.1037 8.145L31.0996 5.9025C31.0206 5.81423 30.9662 5.70678 30.9417 5.59089C30.9173 5.47501 30.9237 5.35473 30.9602 5.24208C30.9968 5.12943 31.0623 5.02834 31.1501 4.9489C31.238 4.86946 31.3451 4.81446 31.4609 4.78938L34.401 4.15238L35.915 1.55346Z" fill="#FFC700"/>
</g>
<g clip-path="url(#clip4_19_32)">
<path d="M48.1503 1.55346C48.2099 1.45117 48.2953 1.3663 48.3979 1.30732C48.5006 1.24833 48.6169 1.21729 48.7353 1.21729C48.8537 1.21729 48.97 1.24833 49.0726 1.30732C49.1753 1.3663 49.2607 1.45117 49.3203 1.55346L50.8342 4.15238L53.7744 4.78938C53.8901 4.81451 53.9971 4.86952 54.0849 4.94892C54.1726 5.02832 54.2381 5.12933 54.2746 5.2419C54.3112 5.35447 54.3176 5.47465 54.2932 5.59046C54.2688 5.70627 54.2145 5.81368 54.1357 5.90196L52.1315 8.145L52.4349 11.1377C52.4468 11.2556 52.4277 11.3745 52.3793 11.4826C52.3309 11.5907 52.2551 11.6843 52.1592 11.7539C52.0634 11.8235 51.951 11.8668 51.8332 11.8794C51.7154 11.892 51.5964 11.8734 51.488 11.8256L48.7353 10.6123L45.9825 11.8256C45.8742 11.8734 45.7551 11.892 45.6374 11.8794C45.5196 11.8668 45.4072 11.8235 45.3113 11.7539C45.2155 11.6843 45.1396 11.5907 45.0913 11.4826C45.0429 11.3745 45.0237 11.2556 45.0357 11.1377L45.339 8.145L43.3349 5.9025C43.2559 5.81423 43.2015 5.70678 43.177 5.59089C43.1526 5.47501 43.159 5.35473 43.1955 5.24208C43.2321 5.12943 43.2976 5.02834 43.3854 4.9489C43.4733 4.86946 43.5804 4.81446 43.6962 4.78938L46.6363 4.15238L48.1503 1.55346Z" fill="#FFC700"/>
</g>
</g>
<defs>
<filter id="filter0_d_19_32" x="0" y="0" width="71.4706" height="21" filterUnits="userSpaceOnUse" color-interpolation-filters="sRGB">
<feFlood flood-opacity="0" result="BackgroundImageFix"/>
<feColorMatrix in="SourceAlpha" type="matrix" values="0 0 0 0 0 0 0 0 0 0 0 0 0 0 0 0 0 0 127 0" result="hardAlpha"/>
<feOffset dy="4"/>
<feGaussianBlur stdDeviation="2"/>
<feComposite in2="hardAlpha" operator="out"/>
<feColorMatrix type="matrix" values="0 0 0 0 0 0 0 0 0 0 0 0 0 0 0 0 0 0 0.25 0"/>
<feBlend mode="normal" in2="BackgroundImageFix" result="effect1_dropShadow_19_32"/>
<feBlend mode="normal" in="SourceGraphic" in2="effect1_dropShadow_19_32" result="shape"/>
</filter>
<clipPath id="clip0_19_32">
<rect width="13" height="13" fill="white" transform="translate(4)"/>
</clipPath>
<clipPath id="clip1_19_32">
<rect width="13" height="13" fill="white" transform="translate(54.4706)"/>
</clipPath>
<clipPath id="clip2_19_32">
<rect width="13" height="13" fill="white" transform="translate(17)"/>
</clipPath>
<clipPath id="clip3_19_32">
<rect width="13" height="13" fill="white" transform="translate(30)"/>
</clipPath>
<clipPath id="clip4_19_32">
<rect width="13" height="13" fill="white" transform="translate(42.2353)"/>
</clipPath>
</defs>
</svg>
